<?xml version="1.0" encoding="utf-8"?>
<!-- Generator: Adobe Illustrator 26.2.1, SVG Export Plug-In . SVG Version: 6.00 Build 0)  -->
<svg version="1.1" id="Layer_1" xmlns="http://www.w3.org/2000/svg" xmlns:xlink="http://www.w3.org/1999/xlink" x="0px" y="0px"
	 viewBox="0 0 512 512" style="enable-background:new 0 0 512 512;" xml:space="preserve">
<style type="text/css">
	.st0{fill-rule:evenodd;clip-rule:evenodd;fill:#161637;}
	.st1{fill-rule:evenodd;clip-rule:evenodd;fill:#FB5D2E;}
	.st2{fill-rule:evenodd;clip-rule:evenodd;fill:#16B4F2;}
	.st3{fill-rule:evenodd;clip-rule:evenodd;fill:#2C2C96;}
</style>
<g>
	<path class="st0" d="M361.74,287.54h10.69c0.33,0,0.6-0.26,0.6-0.59v-73.75c0-0.35-0.29-0.64-0.65-0.64h-10.59
		c-0.36,0-0.65,0.28-0.65,0.64v73.75C361.14,287.28,361.41,287.54,361.74,287.54"/>
	<path class="st0" d="M153.6,277.55c-9.11,0-16.52-7.41-16.52-16.52c0-9.1,7.41-16.52,16.52-16.52c9.11,0,16.51,7.42,16.51,16.52
		C170.12,270.13,162.71,277.55,153.6,277.55 M153.6,232.69c-15.63,0-28.35,12.71-28.35,28.34c0,15.63,12.72,28.35,28.35,28.35
		c15.63,0,28.34-12.72,28.34-28.35C181.94,245.4,169.23,232.69,153.6,232.69"/>
	<path class="st0" d="M407.77,277.55c-9.1,0-16.51-7.41-16.51-16.52c0-9.1,7.41-16.52,16.51-16.52c9.1,0,16.52,7.42,16.52,16.52
		C424.29,270.13,416.87,277.55,407.77,277.55 M407.77,232.69c-15.63,0-28.34,12.71-28.34,28.34c0,15.63,12.71,28.35,28.34,28.35
		c15.63,0,28.34-12.72,28.34-28.35C436.11,245.4,423.4,232.69,407.77,232.69"/>
	<path class="st0" d="M222.94,233.99l-14.96,37.15l-14.97-37.15l-0.58-0.39h-11.69c-0.44,0-0.75,0.45-0.58,0.87l21.91,53.61
		l0.58,0.39h10.7l0.58-0.39l21.91-53.61c0.17-0.41-0.13-0.87-0.58-0.87h-11.74L222.94,233.99"/>
	<path class="st0" d="M308.15,236.7v-2.61c0-0.34-0.27-0.61-0.61-0.61h-10.7c-0.34,0-0.61,0.28-0.61,0.61v53.7
		c0,0.37,0.29,0.66,0.65,0.66h10.62c0.36,0,0.65-0.29,0.65-0.66v-29.6c0-4.83,1.18-8.34,3.5-10.43c2.42-2.17,5.54-3.26,9.29-3.26
		h2.09c0.35,0,0.63-0.29,0.63-0.64v-10.54c0-0.36-0.28-0.64-0.63-0.64h-2.09C315.78,232.69,311.5,234.04,308.15,236.7"/>
	<path class="st0" d="M335.47,217.62c-4.2,3.81-6.33,9.35-6.33,16.48v52.83c0,0.34,0.29,0.62,0.64,0.62h10.86
		c0.35,0,0.64-0.28,0.64-0.62V245h13.75c0.35,0,0.63-0.28,0.63-0.62v-10.42c0-0.34-0.29-0.62-0.63-0.62h-13.74
		c0.11-3.44,0.97-5.89,2.58-7.26c1.75-1.49,4.78-2.1,8.79-1.78l2.31,0.19c0.37,0.03,0.69-0.25,0.69-0.61v-10.47
		c0-0.32-0.26-0.59-0.59-0.62l-1.99-0.13C345.61,212.15,339.66,213.83,335.47,217.62"/>
	<path class="st0" d="M499.67,234.04l-10.02,33.93l-10.67-33.94l-0.57-0.42h-9.6l-0.58,0.42l-10.67,33.94l-10.02-33.93l-0.58-0.44
		h-11.15c-0.41,0-0.7,0.39-0.58,0.79l16.45,53.64l0.58,0.43h10.19l0.58-0.42l10.57-33.13l10.56,33.13l0.58,0.42h10.2l0.58-0.43
		l16.45-53.64c0.13-0.4-0.17-0.79-0.58-0.79h-11.15L499.67,234.04"/>
	<path class="st0" d="M250.96,248.1c3.03-2.66,6.88-4.01,11.46-4.01c3.92,0,7.39,1.27,10.32,3.77c2.21,1.88,3.77,4.41,4.65,7.52
		H246.2C247.11,252.51,248.71,250.07,250.96,248.1z M277.33,270.78l-0.84,0.15c-0.85,1.07-3.12,3.79-4.94,4.8
		c-2.3,1.29-5.12,1.95-8.38,1.95c-4.59,0-8.48-1.26-11.55-3.74c-2.25-1.81-3.83-4.15-4.72-6.97h41.86c0.34,0,0.62-0.25,0.66-0.58
		l0.19-1.86c0.14-1.38,0.21-2.49,0.21-3.3c0-7.62-2.5-14.33-7.44-19.93c-5.03-5.72-11.7-8.61-19.8-8.61
		c-8.3,0-15.21,2.74-20.54,8.16c-5.3,5.39-7.99,12.18-7.99,20.18c0,8.14,2.73,14.98,8.11,20.31c5.38,5.33,12.42,8.03,20.91,8.03
		c5.25,0,10.01-1.13,14.16-3.36c3.58-1.93,6.55-4.48,8.85-7.61c0.2-0.28,0.54-0.78,0.8-1.17c0.2-0.3,0.11-0.71-0.21-0.89
		L277.33,270.78z"/>
	<path class="st1" d="M98.74,250.65c-0.01-0.33-0.27-0.59-0.61-0.59H86.88c0,20.71-16.79,37.5-37.5,37.5
		c-20.72,0-37.51-16.79-37.51-37.5H0.61c-0.33,0-0.6,0.26-0.61,0.59L0,250.67l0.01,0.02c0.34,26.93,22.36,48.74,49.38,48.74
		c27.01,0,49.02-21.81,49.36-48.74l0-0.02L98.74,250.65"/>
	<path class="st2" d="M49.38,212.57c-20.71,0-37.49,16.78-37.49,37.49h74.97C86.86,229.35,70.08,212.57,49.38,212.57"/>
	<path class="st3" d="M86.86,250.06c0,20.71-16.78,37.49-37.48,37.49c-20.71,0-37.49-16.78-37.49-37.49H86.86z"/>
</g>
</svg>
